<svg width="547" height="152" viewBox="0 0 547 152" fill="none" xmlns="http://www.w3.org/2000/svg">
<path d="M166.848 49.6417C171.297 49.6417 175.321 50.5596 178.922 52.3955C182.523 54.1607 185.348 56.9144 187.395 60.6567C189.514 64.399 190.573 69.2357 190.573 75.1669V108H170.449V78.4502C170.449 74.3548 169.602 71.3893 167.907 69.5534C166.283 67.647 163.988 66.6938 161.023 66.6938C158.905 66.6938 156.963 67.188 155.198 68.1766C153.432 69.0945 152.056 70.542 151.067 72.519C150.079 74.4961 149.584 77.0733 149.584 80.2507V108H129.461V50.5949H148.631V66.9056L144.924 62.1395C147.113 57.9736 150.114 54.8668 153.927 52.8191C157.74 50.7009 162.047 49.6417 166.848 49.6417ZM203.207 108V50.5949H223.331V108H203.207ZM213.269 44.2401C209.597 44.2401 206.632 43.2163 204.372 41.1687C202.113 39.121 200.983 36.5791 200.983 33.5429C200.983 30.5067 202.113 27.9648 204.372 25.9171C206.632 23.8695 209.597 22.8456 213.269 22.8456C216.94 22.8456 219.906 23.8342 222.166 25.8112C224.425 27.7177 225.555 30.189 225.555 33.2252C225.555 36.4026 224.425 39.0504 222.166 41.1687C219.977 43.2163 217.011 44.2401 213.269 44.2401ZM262.899 109.483C256.827 109.483 250.966 108.741 245.318 107.259C239.739 105.705 235.185 103.728 231.655 101.327L238.539 85.8641C241.858 87.9824 245.671 89.7476 249.978 91.1598C254.355 92.5013 258.698 93.1721 263.005 93.1721C265.9 93.1721 268.23 92.925 269.995 92.4307C271.761 91.8659 273.032 91.1598 273.808 90.3125C274.656 89.3945 275.079 88.3354 275.079 87.1351C275.079 85.4404 274.302 84.0989 272.749 83.1104C271.196 82.1218 269.183 81.3098 266.712 80.6743C264.241 80.0389 261.487 79.4034 258.451 78.7679C255.485 78.1324 252.484 77.3204 249.448 76.3319C246.483 75.3434 243.764 74.0724 241.293 72.519C238.822 70.895 236.809 68.812 235.256 66.2701C233.702 63.6576 232.926 60.3743 232.926 56.4202C232.926 51.9718 234.126 47.9471 236.527 44.3461C238.998 40.745 242.67 37.85 247.542 35.6612C252.414 33.4723 258.486 32.3778 265.759 32.3778C270.631 32.3778 275.397 32.9427 280.057 34.0725C284.788 35.1316 288.989 36.7203 292.661 38.8386L286.2 54.4078C282.67 52.5014 279.175 51.0892 275.715 50.1713C272.255 49.1828 268.901 48.6885 265.653 48.6885C262.758 48.6885 260.428 49.0062 258.663 49.6417C256.897 50.2066 255.626 50.9833 254.85 51.9718C254.073 52.9603 253.685 54.0901 253.685 55.3611C253.685 56.9851 254.426 58.2913 255.909 59.2798C257.462 60.1978 259.475 60.9745 261.946 61.6099C264.488 62.1748 267.242 62.775 270.207 63.4105C273.243 64.0459 276.244 64.8579 279.21 65.8465C282.246 66.7644 285 68.0354 287.471 69.6594C289.942 71.2128 291.919 73.2957 293.402 75.9082C294.956 78.4502 295.732 81.6629 295.732 85.5464C295.732 89.8535 294.497 93.8429 292.025 97.5146C289.625 101.116 285.988 104.011 281.116 106.199C276.315 108.388 270.242 109.483 262.899 109.483ZM330.097 108.953C322.754 108.953 317.034 107.153 312.939 103.552C308.844 99.88 306.796 94.3725 306.796 87.0292V37.7794H326.92V86.8173C326.92 88.865 327.485 90.489 328.614 91.6893C329.744 92.8191 331.192 93.384 332.957 93.384C335.357 93.384 337.405 92.7838 339.1 91.5834L344.078 105.67C342.383 106.8 340.3 107.612 337.829 108.106C335.357 108.671 332.78 108.953 330.097 108.953ZM298.429 67.7529V52.7132H340.053V67.7529H298.429ZM386.895 108V97.3027L385.518 94.6549V74.955C385.518 71.7776 384.529 69.3416 382.552 67.647C380.646 65.8818 377.574 64.9992 373.338 64.9992C370.584 64.9992 367.795 65.4581 364.971 66.376C362.146 67.2233 359.746 68.4237 357.769 69.9771L350.99 56.3143C354.238 54.196 358.122 52.572 362.641 51.4423C367.23 50.2419 371.784 49.6417 376.303 49.6417C385.624 49.6417 392.826 51.7953 397.91 56.1024C403.064 60.339 405.641 67.0115 405.641 76.1201V108H386.895ZM369.949 108.953C365.359 108.953 361.476 108.177 358.298 106.623C355.121 105.07 352.685 102.951 350.99 100.268C349.366 97.5852 348.554 94.5843 348.554 91.2657C348.554 87.7352 349.437 84.6991 351.202 82.1571C353.038 79.5446 355.827 77.5676 359.569 76.226C363.311 74.8138 368.148 74.1077 374.079 74.1077H387.636V84.5931H376.833C373.585 84.5931 371.29 85.1227 369.949 86.1818C368.678 87.241 368.042 88.6532 368.042 90.4184C368.042 92.1836 368.713 93.5958 370.055 94.6549C371.396 95.714 373.232 96.2436 375.562 96.2436C377.751 96.2436 379.728 95.714 381.493 94.6549C383.329 93.5252 384.671 91.8306 385.518 89.5711L388.272 96.985C387.212 100.939 385.13 103.94 382.023 105.988C378.987 107.965 374.962 108.953 369.949 108.953ZM448.406 108.953C442.051 108.953 436.367 107.682 431.354 105.14C426.411 102.598 422.527 99.1033 419.703 94.6549C416.879 90.1359 415.467 84.9815 415.467 79.1916C415.467 73.4016 416.879 68.2825 419.703 63.8341C422.527 59.3858 426.411 55.9259 431.354 53.4546C436.367 50.9127 442.051 49.6417 448.406 49.6417C454.902 49.6417 460.515 51.0186 465.246 53.7723C469.977 56.5261 473.331 60.4096 475.308 65.4228L459.738 73.3663C458.397 70.6832 456.737 68.7414 454.76 67.5411C452.783 66.2701 450.63 65.6346 448.3 65.6346C445.97 65.6346 443.851 66.1642 441.945 67.2233C440.038 68.2825 438.52 69.8359 437.391 71.8835C436.331 73.8606 435.802 76.2966 435.802 79.1916C435.802 82.1571 436.331 84.6638 437.391 86.7114C438.52 88.7591 440.038 90.3125 441.945 91.3716C443.851 92.4307 445.97 92.9603 448.3 92.9603C450.63 92.9603 452.783 92.3601 454.76 91.1598C456.737 89.8888 458.397 87.9118 459.738 85.2286L475.308 93.1721C473.331 98.1854 469.977 102.069 465.246 104.823C460.515 107.576 454.902 108.953 448.406 108.953ZM474.971 108L501.343 73.3663L500.92 84.805L475.606 50.5949H498.272L512.464 70.8244L503.991 71.2481L519.031 50.5949H540.319L515.006 84.0636V73.0486L541.061 108H518.078L503.25 86.3937L511.723 87.5587L496.789 108H474.971Z" fill="#263762"/>
<g clip-path="url(#clip0_1661_2787)" filter="url(#filter0_d_1661_2787)">
<rect width="113" height="132" transform="translate(7 6)" fill="white"/>
<path d="M7 6H120V39.0979H7V6Z" fill="#A8AFC0"/>
<rect x="7" y="39.0986" width="113" height="33.0979" fill="#7D87A1"/>
<path d="M7 72.1963H120V105.294H7V72.1963Z" fill="#525F81"/>
<path d="M7 105.294H120V138.392H7V105.294Z" fill="#263762"/>
<path d="M63.9918 123.724C51.269 123.724 41.337 120.235 34.1957 113.258C27.0545 106.281 23.4839 96.3901 23.4839 83.5852V35.813H47.8625V82.8465C47.8625 90.2339 49.299 95.5283 52.1719 98.7295C55.1269 101.931 59.1489 103.531 64.2381 103.531C69.3272 103.531 73.3082 101.931 76.1811 98.7295C79.054 95.5283 80.4905 90.2339 80.4905 82.8465V35.813H104.5V83.5852C104.5 96.3901 100.929 106.281 93.7879 113.258C86.6467 120.235 76.7147 123.724 63.9918 123.724Z" fill="white"/>
</g>
<defs>
<filter id="filter0_d_1661_2787" x="0.9" y="0.9" width="131.2" height="150.2" filterUnits="userSpaceOnUse" color-interpolation-filters="sRGB">
<feFlood flood-opacity="0" result="BackgroundImageFix"/>
<feColorMatrix in="SourceAlpha" type="matrix" values="0 0 0 0 0 0 0 0 0 0 0 0 0 0 0 0 0 0 127 0" result="hardAlpha"/>
<feOffset dx="3" dy="4"/>
<feGaussianBlur stdDeviation="4.55"/>
<feComposite in2="hardAlpha" operator="out"/>
<feColorMatrix type="matrix" values="0 0 0 0 0 0 0 0 0 0 0 0 0 0 0 0 0 0 0.3 0"/>
<feBlend mode="normal" in2="BackgroundImageFix" result="effect1_dropShadow_1661_2787"/>
<feBlend mode="normal" in="SourceGraphic" in2="effect1_dropShadow_1661_2787" result="shape"/>
</filter>
<clipPath id="clip0_1661_2787">
<rect width="113" height="132" fill="white" transform="translate(7 6)"/>
</clipPath>
</defs>
</svg>
