<svg width="110" height="120" viewBox="0 0 110 120" fill="none" xmlns="http://www.w3.org/2000/svg">
<rect width="110" height="120" fill="white"/>
<path d="M12 8.01367H97V33.1828H12V8.01367Z" fill="#193E6F" fill-opacity="0.4"/>
<rect x="12" y="33.1826" width="85" height="25.1691" fill="#193E6F" fill-opacity="0.6"/>
<path d="M12 58.3516H97V83.5207H12V58.3516Z" fill="#193E6F" fill-opacity="0.8"/>
<path d="M12 83.521H97V108.69H12V83.521Z" fill="#193E6F"/>
<path d="M68.6559 28.3636H82.956V72.2876C82.956 77.2195 81.7781 81.5348 79.4222 85.2337C77.0884 88.9325 73.8189 91.8168 69.6136 93.8864C65.4084 95.9339 60.5096 96.9577 54.9173 96.9577C49.3029 96.9577 44.3931 95.9339 40.1879 93.8864C35.9826 91.8168 32.7131 88.9325 30.3793 85.2337C28.0455 81.5348 26.8786 77.2195 26.8786 72.2876V28.3636H41.1786V71.0657C41.1786 73.6417 41.7401 75.9315 42.8629 77.935C44.0078 79.9386 45.6151 81.5128 47.6847 82.6577C49.7543 83.8026 52.1651 84.375 54.9173 84.375C57.6914 84.375 60.1023 83.8026 62.1499 82.6577C64.2195 81.5128 65.8157 79.9386 66.9386 77.935C68.0835 75.9315 68.6559 73.6417 68.6559 71.0657V28.3636Z" fill="white"/>
</svg>
