<svg width="384" height="113" viewBox="0 0 384 113" fill="none" xmlns="http://www.w3.org/2000/svg">
<g filter="url(#filter0_d_652_721)">
<path d="M103.932 60.7727V86H91.8295V42.3636H103.364V50.0625H103.875C104.841 47.5246 106.46 45.517 108.733 44.0398C111.006 42.5436 113.761 41.7955 117 41.7955C120.03 41.7955 122.672 42.4583 124.926 43.7841C127.18 45.1098 128.932 47.0038 130.182 49.4659C131.432 51.9091 132.057 54.8258 132.057 58.2159V86H119.955V60.375C119.973 57.7045 119.292 55.6212 117.909 54.125C116.527 52.6098 114.623 51.8523 112.199 51.8523C110.57 51.8523 109.131 52.2027 107.881 52.9034C106.65 53.6042 105.684 54.6269 104.983 55.9716C104.301 57.2973 103.951 58.8977 103.932 60.7727ZM141.595 86V42.3636H153.697V86H141.595ZM147.675 36.7386C145.875 36.7386 144.332 36.142 143.044 34.9489C141.775 33.7367 141.141 32.2879 141.141 30.6023C141.141 28.9356 141.775 27.5057 143.044 26.3125C144.332 25.1004 145.875 24.4943 147.675 24.4943C149.474 24.4943 151.008 25.1004 152.277 26.3125C153.565 27.5057 154.209 28.9356 154.209 30.6023C154.209 32.2879 153.565 33.7367 152.277 34.9489C151.008 36.142 149.474 36.7386 147.675 36.7386ZM195.182 44.5511C194.955 42.2595 193.979 40.4792 192.256 39.2102C190.532 37.9413 188.193 37.3068 185.239 37.3068C183.231 37.3068 181.536 37.5909 180.153 38.1591C178.771 38.7083 177.71 39.4754 176.972 40.4602C176.252 41.4451 175.892 42.5625 175.892 43.8125C175.854 44.8542 176.072 45.7633 176.545 46.5398C177.038 47.3163 177.71 47.9886 178.562 48.5568C179.415 49.1061 180.4 49.589 181.517 50.0057C182.634 50.4034 183.828 50.7443 185.097 51.0284L190.324 52.2784C192.862 52.8466 195.191 53.6042 197.312 54.5511C199.434 55.4981 201.271 56.6629 202.824 58.0455C204.377 59.428 205.58 61.0568 206.432 62.9318C207.303 64.8068 207.748 66.9564 207.767 69.3807C207.748 72.9413 206.839 76.0284 205.04 78.642C203.259 81.2367 200.684 83.2538 197.312 84.6932C193.96 86.1136 189.917 86.8239 185.182 86.8239C180.485 86.8239 176.394 86.1042 172.909 84.6648C169.443 83.2254 166.735 81.0947 164.784 78.2727C162.852 75.4318 161.839 71.9186 161.744 67.733H173.648C173.78 69.6837 174.339 71.3125 175.324 72.6193C176.328 73.9072 177.663 74.8826 179.33 75.5455C181.015 76.1894 182.919 76.5114 185.04 76.5114C187.123 76.5114 188.932 76.2083 190.466 75.6023C192.019 74.9962 193.222 74.1534 194.074 73.0739C194.926 71.9943 195.352 70.7538 195.352 69.3523C195.352 68.0455 194.964 66.947 194.188 66.0568C193.43 65.1667 192.313 64.4091 190.835 63.7841C189.377 63.1591 187.587 62.5909 185.466 62.0795L179.131 60.4886C174.225 59.2955 170.352 57.4299 167.511 54.892C164.67 52.3542 163.259 48.9356 163.278 44.6364C163.259 41.1136 164.197 38.036 166.091 35.4034C168.004 32.7708 170.627 30.7159 173.96 29.2386C177.294 27.7614 181.081 27.0227 185.324 27.0227C189.642 27.0227 193.411 27.7614 196.631 29.2386C199.869 30.7159 202.388 32.7708 204.188 35.4034C205.987 38.036 206.915 41.0852 206.972 44.5511H195.182ZM239.024 42.3636V51.4545H212.746V42.3636H239.024ZM218.712 31.9091H230.814V72.5909C230.814 73.7083 230.984 74.5795 231.325 75.2045C231.666 75.8106 232.14 76.2367 232.746 76.483C233.371 76.7292 234.09 76.8523 234.905 76.8523C235.473 76.8523 236.041 76.8049 236.609 76.7102C237.178 76.5966 237.613 76.5114 237.916 76.4545L239.82 85.4602C239.214 85.6496 238.361 85.8674 237.263 86.1136C236.164 86.3788 234.829 86.5398 233.257 86.5966C230.34 86.7102 227.784 86.322 225.587 85.4318C223.409 84.5417 221.714 83.1591 220.501 81.2841C219.289 79.4091 218.693 77.0417 218.712 74.1818V31.9091ZM259.351 86.8239C256.567 86.8239 254.086 86.3409 251.908 85.375C249.73 84.3902 248.006 82.9413 246.737 81.0284C245.487 79.0966 244.862 76.6913 244.862 73.8125C244.862 71.3883 245.307 69.3523 246.197 67.7045C247.088 66.0568 248.3 64.7311 249.834 63.7273C251.368 62.7235 253.11 61.9659 255.061 61.4545C257.031 60.9432 259.095 60.5833 261.254 60.375C263.792 60.1098 265.838 59.8636 267.391 59.6364C268.944 59.3902 270.071 59.0303 270.771 58.5568C271.472 58.0833 271.822 57.3826 271.822 56.4545V56.2841C271.822 54.4848 271.254 53.0928 270.118 52.108C269 51.1231 267.41 50.6307 265.345 50.6307C263.167 50.6307 261.434 51.1136 260.146 52.0795C258.858 53.0265 258.006 54.2197 257.589 55.6591L246.396 54.75C246.964 52.0985 248.082 49.8068 249.749 47.875C251.415 45.9242 253.565 44.428 256.197 43.3864C258.849 42.3258 261.917 41.7955 265.402 41.7955C267.826 41.7955 270.146 42.0795 272.362 42.6477C274.597 43.2159 276.576 44.0966 278.3 45.2898C280.042 46.483 281.415 48.017 282.419 49.892C283.423 51.7481 283.925 53.9735 283.925 56.5682V86H272.447V79.9489H272.107C271.406 81.3125 270.468 82.5152 269.294 83.5568C268.12 84.5795 266.709 85.3845 265.061 85.9716C263.413 86.5398 261.51 86.8239 259.351 86.8239ZM262.817 78.4716C264.597 78.4716 266.169 78.1212 267.533 77.4205C268.896 76.7008 269.966 75.7348 270.743 74.5227C271.519 73.3106 271.908 71.9375 271.908 70.4034V65.7727C271.529 66.0189 271.008 66.2462 270.345 66.4545C269.701 66.6439 268.972 66.8239 268.158 66.9943C267.343 67.1458 266.529 67.2879 265.714 67.4205C264.9 67.5341 264.161 67.6383 263.499 67.733C262.078 67.9413 260.838 68.2727 259.777 68.7273C258.716 69.1818 257.893 69.7973 257.305 70.5739C256.718 71.3314 256.425 72.2784 256.425 73.4148C256.425 75.0625 257.021 76.322 258.214 77.1932C259.427 78.0455 260.961 78.4716 262.817 78.4716ZM313.03 86.8523C308.56 86.8523 304.715 85.9053 301.496 84.0114C298.295 82.0985 295.833 79.447 294.109 76.0568C292.405 72.6667 291.553 68.7652 291.553 64.3523C291.553 59.8826 292.414 55.9621 294.138 52.5909C295.88 49.2008 298.352 46.5587 301.553 44.6648C304.753 42.7519 308.56 41.7955 312.973 41.7955C316.78 41.7955 320.113 42.4867 322.973 43.8693C325.833 45.2519 328.096 47.1932 329.763 49.6932C331.429 52.1932 332.348 55.1288 332.518 58.5H321.098C320.776 56.322 319.924 54.5701 318.541 53.2443C317.178 51.8996 315.388 51.2273 313.172 51.2273C311.297 51.2273 309.659 51.7386 308.257 52.7614C306.875 53.7652 305.795 55.233 305.018 57.1648C304.242 59.0966 303.854 61.4356 303.854 64.1818C303.854 66.9659 304.232 69.3333 304.99 71.2841C305.767 73.2348 306.856 74.7216 308.257 75.7443C309.659 76.767 311.297 77.2784 313.172 77.2784C314.554 77.2784 315.795 76.9943 316.893 76.4261C318.011 75.858 318.929 75.0341 319.649 73.9545C320.388 72.8561 320.871 71.5398 321.098 70.0057H332.518C332.329 73.339 331.42 76.2746 329.791 78.8125C328.181 81.3314 325.956 83.3011 323.115 84.7216C320.274 86.142 316.912 86.8523 313.03 86.8523ZM350.146 42.3636L358.158 57.6193L366.368 42.3636H378.783L366.141 64.1818L379.124 86H366.766L358.158 70.9148L349.692 86H337.192L350.146 64.1818L337.646 42.3636H350.146Z" fill="#193E6F"/>
<path d="M4 2H89V27H4V2Z" fill="#193E6F" fill-opacity="0.4"/>
<rect x="4" y="27" width="85" height="25" fill="#193E6F" fill-opacity="0.6"/>
<path d="M4 52H89V77H4V52Z" fill="#193E6F" fill-opacity="0.8"/>
<path d="M4 77H89V102H4V77Z" fill="#193E6F"/>
<path d="M60.6559 22.3636H74.956V66.2876C74.956 71.2195 73.7781 75.5348 71.4222 79.2337C69.0884 82.9325 65.8189 85.8168 61.6136 87.8864C57.4084 89.9339 52.5096 90.9577 46.9173 90.9577C41.3029 90.9577 36.3931 89.9339 32.1879 87.8864C27.9826 85.8168 24.7131 82.9325 22.3793 79.2337C20.0455 75.5348 18.8786 71.2195 18.8786 66.2876V22.3636H33.1786V65.0657C33.1786 67.6417 33.7401 69.9315 34.8629 71.935C36.0078 73.9386 37.6151 75.5128 39.6847 76.6577C41.7543 77.8026 44.1651 78.375 46.9173 78.375C49.6914 78.375 52.1023 77.8026 54.1499 76.6577C56.2195 75.5128 57.8157 73.9386 58.9386 71.935C60.0835 69.9315 60.6559 67.6417 60.6559 65.0657V22.3636Z" fill="white"/>
</g>
<defs>
<filter id="filter0_d_652_721" x="0" y="0" width="386" height="121" filterUnits="userSpaceOnUse" color-interpolation-filters="sRGB">
<feFlood flood-opacity="0" result="BackgroundImageFix"/>
<feColorMatrix in="SourceAlpha" type="matrix" values="0 0 0 0 0 0 0 0 0 0 0 0 0 0 0 0 0 0 127 0" result="hardAlpha"/>
<feOffset dy="4"/>
<feGaussianBlur stdDeviation="2"/>
<feComposite in2="hardAlpha" operator="out"/>
<feColorMatrix type="matrix" values="0 0 0 0 0 0 0 0 0 0 0 0 0 0 0 0 0 0 0.25 0"/>
<feBlend mode="normal" in2="BackgroundImageFix" result="effect1_dropShadow_652_721"/>
<feBlend mode="normal" in="SourceGraphic" in2="effect1_dropShadow_652_721" result="shape"/>
</filter>
</defs>
</svg>
